<svg width="18" height="17" viewBox="0 0 18 17" fill="none" xmlns="http://www.w3.org/2000/svg">
<path d="M17.2243 17L10.3443 10.503C9.79491 10.945 9.16316 11.287 8.449 11.5291C7.73485 11.7712 7.01703 11.8922 6.29555 11.8922C4.53617 11.8922 3.04706 11.3171 1.82824 10.1668C0.609412 9.01583 0 7.60997 0 5.94922C0 4.28848 0.608679 2.88192 1.82604 1.72957C3.04413 0.576523 4.5325 0 6.29116 0C8.05054 0 9.54038 0.575486 10.7607 1.72646C11.981 2.87743 12.5911 4.28398 12.5911 5.94611C12.5911 6.66685 12.456 7.36442 12.1857 8.03882C11.9147 8.71321 11.5594 9.29008 11.1199 9.76943L18 16.2654L17.2243 17ZM6.29555 10.8536C7.75316 10.8536 8.98407 10.3798 9.98828 9.43223C10.9918 8.48461 11.4935 7.32223 11.4935 5.94507C11.4935 4.56861 10.9918 3.40657 9.98828 2.45896C8.9848 1.51134 7.75426 1.03753 6.29665 1.03753C4.83904 1.03753 3.60813 1.51134 2.60392 2.45896C1.60044 3.40657 1.0987 4.56861 1.0987 5.94507C1.0987 7.32153 1.60044 8.48357 2.60392 9.43119C3.6074 10.3788 4.83794 10.8536 6.29555 10.8536Z" fill="#808080"/>
</svg>
