<svg xmlns="http://www.w3.org/2000/svg" width="19" height="21" viewBox="0 0 19 21" fill="none">
<path d="M7.67308 3.375V3.75H11.3269V3.375C11.3269 2.87772 11.1344 2.40081 10.7918 2.04917C10.4492 1.69754 9.98453 1.5 9.5 1.5C9.01547 1.5 8.55079 1.69754 8.20817 2.04917C7.86556 2.40081 7.67308 2.87772 7.67308 3.375ZM6.21154 3.75V3.375C6.21154 2.47989 6.558 1.62145 7.17471 0.988515C7.79141 0.355579 8.62785 0 9.5 0C10.3722 0 11.2086 0.355579 11.8253 0.988515C12.442 1.62145 12.7885 2.47989 12.7885 3.375V3.75H18.2692C18.463 3.75 18.6489 3.82902 18.786 3.96967C18.923 4.11032 19 4.30109 19 4.5C19 4.69891 18.923 4.88968 18.786 5.03033C18.6489 5.17098 18.463 5.25 18.2692 5.25H17.1672L15.7846 17.676C15.6827 18.5911 15.2561 19.4358 14.5863 20.0488C13.9164 20.6618 13.0502 21.0004 12.1527 21H6.84731C5.94982 21.0004 5.08357 20.6618 4.41374 20.0488C3.7439 19.4358 3.31734 18.5911 3.21538 17.676L1.83277 5.25H0.730769C0.536957 5.25 0.351083 5.17098 0.214037 5.03033C0.0769915 4.88968 0 4.69891 0 4.5C0 4.30109 0.0769915 4.11032 0.214037 3.96967C0.351083 3.82902 0.536957 3.75 0.730769 3.75H6.21154ZM4.66815 17.505C4.72916 18.0539 4.98484 18.5606 5.38644 18.9286C5.78805 19.2965 6.30752 19.4999 6.84585 19.5H12.1534C12.6918 19.4999 13.2112 19.2965 13.6128 18.9286C14.0144 18.5606 14.2701 18.0539 14.3311 17.505L15.6969 5.25H3.30381L4.66815 17.505ZM7.30769 7.875C7.5015 7.875 7.68738 7.95402 7.82442 8.09467C7.96147 8.23532 8.03846 8.42609 8.03846 8.625V16.125C8.03846 16.3239 7.96147 16.5147 7.82442 16.6553C7.68738 16.796 7.5015 16.875 7.30769 16.875C7.11388 16.875 6.92801 16.796 6.79096 16.6553C6.65391 16.5147 6.57692 16.3239 6.57692 16.125V8.625C6.57692 8.42609 6.65391 8.23532 6.79096 8.09467C6.92801 7.95402 7.11388 7.875 7.30769 7.875ZM12.4231 8.625C12.4231 8.42609 12.3461 8.23532 12.209 8.09467C12.072 7.95402 11.8861 7.875 11.6923 7.875C11.4985 7.875 11.3126 7.95402 11.1756 8.09467C11.0385 8.23532 10.9615 8.42609 10.9615 8.625V16.125C10.9615 16.3239 11.0385 16.5147 11.1756 16.6553C11.3126 16.796 11.4985 16.875 11.6923 16.875C11.8861 16.875 12.072 16.796 12.209 16.6553C12.3461 16.5147 12.4231 16.3239 12.4231 16.125V8.625Z" fill="#CE0000"/>
</svg>