<svg width="24" height="24" viewBox="0 0 24 24" fill="none" xmlns="http://www.w3.org/2000/svg">
<path d="M23.8265 11.7266L12.5345 0.22301C12.3934 0.0801736 12.2026 0 12.0038 0C11.8049 0 11.6141 0.0801736 11.473 0.22301L0.181016 11.7266C0.0576877 11.8733 -0.00675667 12.062 0.000561426 12.255C0.00787953 12.448 0.0864211 12.6311 0.220491 12.7677C0.354561 12.9043 0.534284 12.9843 0.723746 12.9918C0.913208 12.9992 1.09845 12.9336 1.24247 12.8079L12 1.84885L22.7575 12.8156C22.9015 12.9412 23.0868 13.0069 23.2763 12.9994C23.4657 12.992 23.6454 12.912 23.7795 12.7754C23.9136 12.6388 23.9921 12.4557 23.9994 12.2627C24.0068 12.0697 23.9423 11.881 23.819 11.7343L23.8265 11.7266Z" fill="white"/>
<path d="M19.5 22.5222H15.75V15.133H8.25V22.5222H4.5V12.1773L3 13.6552V22.5222C3 22.9141 3.15804 23.29 3.43934 23.5672C3.72064 23.8443 4.10218 24 4.5 24H9.75V16.6108H14.25V24H19.5C19.8978 24 20.2794 23.8443 20.5607 23.5672C20.842 23.29 21 22.9141 21 22.5222V13.4778L19.5 12V22.5222Z" fill="white"/>
</svg>
